<?xml version="1.0" encoding="UTF-8"?>
<svg version="1.1" xmlns="http://www.w3.org/2000/svg" width="1024" height="1024">
<path d="M0 0 C4.37574456 0.08113192 8.75012165 0.1939578 13.125 0.3125 C14.98125 0.34633789 14.98125 0.34633789 16.875 0.38085938 C18.07382813 0.41630859 19.27265625 0.45175781 20.5078125 0.48828125 C21.60754395 0.51446533 22.70727539 0.54064941 23.84033203 0.56762695 C28.21777391 1.16664175 31.66432431 2.6288639 34.765625 5.8125 C52.11362112 31.37796796 59.86936811 59.41318996 61.55078125 90 C61.61682556 91.16208984 61.61682556 91.16208984 61.6842041 92.34765625 C61.79105277 94.2316817 61.89575501 96.11582869 62 98 C63.12223414 97.99962028 64.24446828 97.99924056 65.40070951 97.99884933 C115.29152247 97.98203781 165.1823356 97.96663252 215.07315063 97.95765686 C215.83852339 97.9575188 216.60389615 97.95738075 217.39246203 97.95723851 C234.05952334 97.95423977 250.72658469 97.95147044 267.39364608 97.94893467 C275.57704661 97.94768824 283.76044714 97.94639156 291.94384766 97.94506836 C292.75783298 97.9449376 293.57181831 97.94480684 294.41046986 97.94467212 C318.80119078 97.94073216 343.1919097 97.9341009 367.58262937 97.92541151 C405.25216767 97.9120349 442.92170477 97.90306944 480.59124561 97.90238637 C482.12996036 97.90235795 483.66867512 97.90232412 485.20738988 97.90228491 C569.57496794 97.90016383 653.9394345 98.00498079 774 99 C774 105.6 774 112.2 774 119 C743.64 119 713.28 119 682 119 C682.33 125.93 682.66 132.86 683 140 C684.340625 139.401875 685.68125 138.80375 687.0625 138.1875 C704.74837229 131.21733154 724.09627423 130.69835968 742 137 C750.96333906 140.92146084 759.24908456 148.24457182 763.18623352 157.38291931 C764.23401729 160.75260182 764.6821058 164.12278285 765.08276367 167.61547852 C765.1686056 168.36101518 765.25444754 169.10655184 765.34289074 169.87468052 C766.25556989 178.46229873 766.30907306 187.02486079 766.30078125 195.65234375 C766.30468074 197.37203573 766.30901792 199.09172678 766.31376648 200.81141663 C766.32114488 204.37357754 766.3209938 207.9356391 766.31567383 211.49780273 C766.30980891 216.06760002 766.32701688 220.63700117 766.3500185 225.20673275 C766.36469807 228.73851398 766.36563688 232.27019753 766.36250877 235.80200386 C766.36302226 237.48896651 766.36826509 239.17593459 766.37832069 240.86286736 C766.39059138 243.2030403 766.38395735 245.54240935 766.37231445 247.88256836 C766.37995819 248.57802765 766.38760193 249.27348694 766.39547729 249.99002075 C766.3742218 251.91270447 766.3742218 251.91270447 766 255 C764.515 255.99 764.515 255.99 763 257 C763 256.34 763 255.68 763 255 C762.34 254.9175 761.68 254.835 761 254.75 C753.4893077 252.87232692 748.04527153 248.65369129 742.19921875 243.70703125 C740.02384165 241.823563 740.02384165 241.823563 737 241 C734.44361517 242.17303406 732.02455093 243.403696 729.5625 244.75 C708.73295498 255.66789592 686.89448349 254.65136669 664.95703125 248.08984375 C654.89132873 244.48491773 646.86203009 237.50462666 641.96875 227.99609375 C638.46962976 219.71808245 639.74457363 212.12623476 643 204 C650.39612718 188.56769617 664.19858422 179.10521831 679.85546875 173.03125 C700.96348148 166.10887067 720.36349573 168.55422831 741 176 C739.77001859 169.6826725 739.77001859 169.6826725 737 164 C734.70465742 162.86454438 734.70465742 162.86454438 732 162 C730.989375 161.484375 729.97875 160.96875 728.9375 160.4375 C712.00985382 152.15375825 688.51561886 159.67847235 671.83325195 165.35107422 C666.12622172 167.35121638 660.54137263 169.5801241 655 172 C653.15408128 170.15408128 653.69851784 167.35764091 653.625 164.875 C653.57601562 163.75867188 653.52703125 162.64234375 653.4765625 161.4921875 C654 158 654 158 659 151 C659 140.44 659 129.88 659 119 C637.55 119 616.1 119 594 119 C594 123.95 594 128.9 594 134 C596.05383472 135.06454296 596.05383472 135.06454296 598.50390625 135.98046875 C612.65634999 141.56553276 622.78105861 148.86068359 628.9921875 163.12890625 C634.57188636 179.02455998 633.38595286 197.05683831 626.23095703 212.26513672 C623.07779775 218.64080414 619.70422407 224.62374391 615 230 C614.34 230 613.68 230 613 230 C612.75636719 230.57363281 612.51273438 231.14726563 612.26171875 231.73828125 C606.10797665 242.76929262 590.47426563 250.53078054 579 255 C574.52914263 255.11177143 571.98281754 252.66628088 568.81640625 249.80078125 C566.34313409 247.34878455 564.08861473 244.7411704 561.828125 242.09375 C559.88553518 239.86890354 557.87787872 237.73627602 555.8125 235.625 C555.17957031 234.97789062 554.54664063 234.33078125 553.89453125 233.6640625 C552.01509455 232.01325831 550.28097254 231.00140258 548 230 C548.33 229.01 548.66 228.02 549 227 C550.0415625 226.91363281 551.083125 226.82726562 552.15625 226.73828125 C569.82121366 225.08777747 590.75004939 220.41988943 602.80078125 206.25 C603.19652344 205.8375 603.59226562 205.425 604 205 C604.66 205 605.32 205 606 205 C606.38671875 204.18789063 606.38671875 204.18789063 606.78125 203.359375 C608.22297158 200.56834988 609.8614098 197.93006703 611.5 195.25 C616.33667825 186.95424208 618.31224102 179.20539616 616.5703125 169.640625 C614.97027119 163.75405327 612.14058464 160.27128113 607 157 C606.01 156.67 605.02 156.34 604 156 C603.36989014 155.65557861 602.73978027 155.31115723 602.09057617 154.95629883 C598.34300272 153.24203453 594.37038992 153.67263593 590.3125 153.6875 C589.02182617 153.66333008 589.02182617 153.66333008 587.70507812 153.63867188 C575.4854955 153.62946345 564.03936439 158.78948938 555.25 167.25 C544.61877123 178.61898308 537.83223213 192.29320656 533 207 C529.29546648 206.4345712 526.76658986 205.46024295 523.625 203.4375 C519.13285159 200.64011667 514.5501005 198.09833239 509.875 195.625 C508.86107178 195.08830688 508.86107178 195.08830688 507.82666016 194.54077148 C506.21887023 193.69176736 504.60959625 192.84557457 503 192 C504.10944858 181.71040826 507.29034446 174.3994021 513.609375 166.12890625 C515.2734384 164.00520158 515.2734384 164.00520158 515 161 C503.83144711 156.21347733 491.68597219 156.540734 480.41796875 160.859375 C477.53100126 162.22124012 475.32264572 163.8139805 473 166 C472.030625 166.556875 471.06125 167.11375 470.0625 167.6875 C465.89586376 170.83373552 463.60767919 174.53079171 461 179 C460.38125 180.03125 459.7625 181.0625 459.125 182.125 C455.71927968 190.91461351 457.47529041 201.76478228 460.74609375 210.30078125 C462.73387514 214.57977483 465.12815283 218.26531085 468 222 C468.63679688 222.85078125 469.27359375 223.7015625 469.9296875 224.578125 C478.37549198 235.40607946 488.43910514 244.58850081 500 252 C499.67 252.99 499.34 253.98 499 255 C483.12749672 256.84563992 464.77783164 243.65041292 452.62207031 234.28613281 C448.5708161 231.07391018 444.53505813 227.77941699 441 224 C441 223.34 441 222.68 441 222 C440.34 222 439.68 222 439 222 C437.4361306 219.90477729 436.0169072 217.83111633 434.625 215.625 C434.22087891 214.99029785 433.81675781 214.3555957 433.40039062 213.70166016 C430.28442358 208.69565961 427.77463292 203.6407975 426 198 C425.81050781 197.41476562 425.62101562 196.82953125 425.42578125 196.2265625 C423.02868673 183.69129759 424.97644007 171.02641619 431.8125 160.25 C432.85081824 158.81551545 433.9133574 157.39823409 435 156 C435.52464844 155.31164062 436.04929687 154.62328125 436.58984375 153.9140625 C446.9641054 141.17202819 462.05449262 135.25008826 478 133 C486.04044092 132.49052506 494.00671939 133.10295849 502 134 C502 134.66 502 135.32 502 136 C503.216875 136.185625 504.43375 136.37125 505.6875 136.5625 C515.01772961 138.62605789 523.49613857 144.24122262 531 150 C531.90878906 149.43732422 531.90878906 149.43732422 532.8359375 148.86328125 C543.77240252 142.18362492 554.51742589 137.12064353 567 134 C567 129.05 567 124.1 567 119 C444.9 119 322.8 119 197 119 C197 125.27 197 131.54 197 138 C202.32499814 136.73087605 202.32499814 136.73087605 207.64892578 135.45727539 C226.22662522 131.05776055 245.31659002 131.05416713 262.5 140.1875 C267.97322656 143.61287059 271.5235944 147.61157133 275 153 C275.598125 153.845625 276.19625 154.69125 276.8125 155.5625 C279.63123802 161.34833067 280.2523975 167.22581318 280.31884766 173.58666992 C280.32889328 174.29847412 280.3389389 175.01027832 280.34928894 175.74365234 C280.37990986 178.07258406 280.39711599 180.40140084 280.4140625 182.73046875 C280.43281625 184.36941964 280.45239263 186.00836131 280.4727478 187.64729309 C280.52391093 191.95104354 280.56357646 196.25482606 280.60089111 200.55871582 C280.64072256 204.9018563 280.69211825 209.2448584 280.7421875 213.58789062 C280.89311268 227.05875377 281.03149474 240.52807691 281 254 C276.131956 255.2234886 273.44918508 254.24116853 269.125 251.9375 C268.50512207 251.61894043 267.88524414 251.30038086 267.24658203 250.97216797 C262.54623489 248.48040278 258.90313667 245.56373348 255 242 C253.06525215 241.1569841 253.06525215 241.1569841 251 241 C248.41925295 242.16265738 246.02661132 243.37841667 243.5625 244.75 C236.52989095 248.46941527 229.89748898 250.73115135 222 252 C221.27554688 252.12890625 220.55109375 252.2578125 219.8046875 252.390625 C204.01206442 254.82025932 183.01515242 252.66981427 169.75 243.1875 C168.48375921 242.1444082 167.23334431 241.08178929 166 240 C165.3709375 239.48695313 164.741875 238.97390625 164.09375 238.4453125 C158.26601424 233.28430922 155.75904082 227.0941812 154.62109375 219.45703125 C154.11871881 209.26368161 158.64432363 199.75657952 165 192 C178.14979052 178.18549479 196.96265595 169.78824787 215.875 168.796875 C226.75921455 168.59470771 236.90583799 169.63248084 247.30078125 173.1015625 C249.84213769 174.10527193 249.84213769 174.10527193 252 174 C252 174.66 252 175.32 252 176 C252.66 175.67 253.32 175.34 254 175 C253.58558243 169.71617594 252.88841677 166.68901078 249 163 C236.37067047 155.29792429 219.69691379 156.46049428 205.68969727 159.48632812 C193.328549 162.4913243 181.66160354 166.95956267 170 172 C168.07815673 170.07815673 168.73789941 166.80710692 168.6875 164.25 C168.63142578 162.40148437 168.63142578 162.40148437 168.57421875 160.515625 C169 157 169 157 171.00219727 154.66625977 C173.43076912 151.4250972 173.46945594 149.82488918 173.390625 145.82421875 C173.37773437 144.66728516 173.36484375 143.51035156 173.3515625 142.31835938 C173.31804687 141.12017578 173.28453125 139.92199219 173.25 138.6875 C173.23195313 137.46998047 173.21390625 136.25246094 173.1953125 134.99804688 C173.14825131 131.99789578 173.0825131 128.99935111 173 126 C172.67 126 172.34 126 172 126 C172 123.69 172 121.38 172 119 C135.7 119 99.4 119 62 119 C62.33 129.23 62.66 139.46 63 150 C66.96 147.69 70.92 145.38 75 143 C89.12954378 135.32469227 104.0407158 132.29335044 119.9375 136.125 C131.61454619 139.99346929 140.60999562 146.2193667 146.4375 157.25 C147.73874516 160.16776998 148.68755987 162.79748869 149 166 C149.09474609 166.96679688 149.09474609 166.96679688 149.19140625 167.953125 C149.63301571 176.10153186 146.9710895 182.92506623 141.875 189.25 C134.92398867 196.58553536 123.91320006 202.7890338 113.671875 203.1015625 C112.34929687 203.05128906 112.34929687 203.05128906 111 203 C117.20541266 210.89630552 123.86497774 218.22765059 130.74609375 225.53125 C144 239.60807403 144 239.60807403 144 243 C141.26193053 245.13138597 138.21749105 246.83176154 135.25 248.625 C134.425 249.140625 133.6 249.65625 132.75 250.1875 C131.95078125 250.67476562 131.1515625 251.16203125 130.328125 251.6640625 C129.5949707 252.11217285 128.86181641 252.5602832 128.10644531 253.02197266 C126 254 126 254 122 254 C119.9921875 251.98046875 119.9921875 251.98046875 117.875 249.1875 C114.71148842 245.13716797 111.49674292 241.27452157 108 237.5 C103.85818487 232.99858542 99.9593002 228.35195362 96.1171875 223.59375 C93.16876275 219.98165769 90.10168208 216.48066574 87 213 C86.34 213.33 85.68 213.66 85 214 C84.76539063 213.28199219 84.53078125 212.56398438 84.2890625 211.82421875 C82.77998218 208.51796096 80.87719681 206.43782078 78.375 203.8125 C74 199.20977918 74 199.20977918 74 197 C73.01 197.33 72.02 197.66 71 198 C69.7109375 194.8828125 69.7109375 194.8828125 69 191 C70.47673992 188.50138098 71.65881274 186.90512831 73.625 184.875 C74.53412002 183.8726369 75.44297716 182.87003529 76.3515625 181.8671875 C77.22554688 180.92101562 78.09953125 179.97484375 79 179 C80.34812643 177.34527625 81.68706173 175.68278004 83 174 C83.6290625 174.144375 84.258125 174.28875 84.90625 174.4375 C95.98850769 176.84088119 106.33677519 176.8249934 116.3203125 170.5390625 C119.98080309 167.52183804 122.63179192 164.67309503 123.30078125 159.81640625 C123.32541678 155.07817218 123.20138684 151.77306306 120 148 C114.92907767 144.99662111 109.20796483 144.50043906 103.44140625 145.3984375 C97.13001199 147.07228621 92.14826515 150.04770207 87 154 C85.98099609 154.77150391 85.98099609 154.77150391 84.94140625 155.55859375 C72.5416965 165.63788998 64.21177952 180.38975821 62.34423828 196.16162109 C61.4266568 207.04034807 61.79943019 218.03192087 61.875 228.9375 C61.88505045 231.47069958 61.89417264 234.00390303 61.90234375 236.53710938 C61.92419214 242.69149167 61.9575059 248.84572741 62 255 C58.0376055 254.50668263 54.42328683 254.00190496 50.73828125 252.44140625 C50.01189453 252.13783203 49.28550781 251.83425781 48.53710938 251.52148438 C47.43592773 251.04678711 47.43592773 251.04678711 46.3125 250.5625 C45.19391602 250.09360352 45.19391602 250.09360352 44.05273438 249.61523438 C40.64205704 248.17611717 37.30709754 246.66431981 34 245 C34.01879211 244.05756187 34.01879211 244.05756187 34.03796387 243.09608459 C34.85312309 202.01441646 35.35570629 161.07141048 34 120 C32.78441406 119.93941406 31.56882813 119.87882812 30.31640625 119.81640625 C28.73175772 119.73201668 27.14712298 119.6473679 25.5625 119.5625 C24.76005859 119.52318359 23.95761719 119.48386719 23.13085938 119.44335938 C17.11328125 119.11328125 17.11328125 119.11328125 16 118 C15.91348389 116.58429877 15.89295096 115.164405 15.90234375 113.74609375 C15.90556641 112.89208984 15.90878906 112.03808594 15.91210938 111.15820312 C15.92048828 110.26037109 15.92886719 109.36253906 15.9375 108.4375 C15.94201172 107.53580078 15.94652344 106.63410156 15.95117188 105.70507812 C15.96299775 103.46998686 15.9794778 101.23502563 16 99 C19.82810821 97.72396393 23.23475107 98.13716013 27.1875 98.4375 C27.93708984 98.48970703 28.68667969 98.54191406 29.45898438 98.59570312 C31.30637082 98.72513784 33.15324371 98.86186518 35 99 C32.93175746 63.09581401 25.86530506 31.2274819 0.1171875 4.62109375 C-0.43582031 3.81865234 -0.43582031 3.81865234 -1 3 C-0.67 2.01 -0.34 1.02 0 0 Z M177.86328125 207.9453125 C174.04103057 212.03199562 170.8788953 216.36605577 170 222 C170.55178554 225.73987976 170.94290734 228.03391532 173.76953125 230.6171875 C183.07747316 236.38778546 195.79847852 233.58123583 206 232 C207.33650746 231.67963037 208.67016931 231.34704356 210 231 C210.95390625 230.77183594 211.9078125 230.54367187 212.890625 230.30859375 C229.42358599 226.02155852 244.22568516 218.53695967 255 205 C253.96644488 201.97129102 253.10342295 201.06130433 250.3046875 199.40234375 C225.84886095 188.95708754 198.52022974 189.13880364 177.86328125 207.9453125 Z M662.83203125 209.1171875 C658.61113702 213.72971109 656.28937609 217.25092718 655.625 223.5625 C655.70464331 227.02092938 655.70464331 227.02092938 657.75 229.3125 C666.00984 235.50738 676.87951077 234.61561651 686.68286133 233.23950195 C705.24560939 230.31945318 724.73725394 224.08275455 738 210 C740.1519437 206.77208445 740.20086443 205.71599191 740 202 C714.63356609 188.3453026 684.40123213 188.05321114 662.83203125 209.1171875 Z " fill="#020202" transform="translate(124,378)"/>
<path d="M0 0 C0 0.66 0 1.32 0 2 C0.556875 2.14695312 1.11375 2.29390625 1.6875 2.4453125 C10.74341836 5.10701823 17.56522338 10.27242699 23 18 C26.70059214 24.89075777 27.90434866 31.47442114 25.9375 39.0625 C24.19167001 44.16569536 21.5582062 47.98862603 18 52 C17.4740625 52.59554687 16.948125 53.19109375 16.40625 53.8046875 C11.83192217 58.65951657 6.54475528 62.32952819 1 66 C-6.52727136 62.69534428 -15.54162537 53.29789262 -19.0078125 45.828125 C-19.922526 43.64640646 -19.922526 43.64640646 -23 43 C-23.33 42.01 -23.66 41.02 -24 40 C-22.72125 39.79375 -21.4425 39.5875 -20.125 39.375 C-11.71823541 37.49209689 -4.9398435 33.01139078 0 26 C1.55024464 22.89951072 1.28992015 20.42105782 1 17 C-0.98156269 13.43318715 -2.4377228 12.24255095 -6.1875 10.625 C-15.71566414 9.06300588 -22.88790887 11.93788569 -31 17 C-34.5898243 19.77163072 -37.81210204 22.77872091 -41 26 C-41.62519531 26.59167969 -42.25039063 27.18335938 -42.89453125 27.79296875 C-61.71546767 47.03875701 -59.15829106 74.79960741 -59.0625 99.5625 C-59.05747128 101.84570214 -59.05291082 104.12890535 -59.04882812 106.41210938 C-59.03793975 111.94143031 -59.02131204 117.47070991 -59 123 C-61 124 -61 124 -63.15136719 123.33496094 C-64.46089355 122.7901709 -64.46089355 122.7901709 -65.796875 122.234375 C-66.7559375 121.83863281 -67.715 121.44289063 -68.703125 121.03515625 C-70.21132813 120.39900391 -70.21132813 120.39900391 -71.75 119.75 C-72.74 119.34136719 -73.73 118.93273437 -74.75 118.51171875 C-79.61155209 116.49040498 -84.28003154 114.35998423 -89 112 C-89 76.36 -89 40.72 -89 4 C-85.10828687 3.22165737 -82.15001261 2.88155073 -78.26171875 2.90234375 C-77.19501953 2.90556641 -76.12832031 2.90878906 -75.02929688 2.91210938 C-73.37510742 2.92467773 -73.37510742 2.92467773 -71.6875 2.9375 C-70.56537109 2.94201172 -69.44324219 2.94652344 -68.28710938 2.95117188 C-65.5246849 2.96292687 -62.76237002 2.97935923 -60 3 C-58.99485324 7.31096276 -59.22853241 10.62835032 -60 15 C-59.02160156 14.39671875 -58.04320312 13.7934375 -57.03515625 13.171875 C-38.77043426 2 -38.77043426 2 -33 2 C-32.67 1.34 -32.34 0.68 -32 0 C-21.60229074 -2.03350034 -10.44278267 -1.26853759 0 0 Z " fill="#020202" transform="translate(513,512)"/>
<path d="M0 0 C0.99 0.33 1.98 0.66 3 1 C2.01 1 1.02 1 0 1 C0 0.67 0 0.34 0 0 Z " fill="#181816" transform="translate(840,573)"/>
<path d="M0 0 C0.66 0.66 1.32 1.32 2 2 C1.34 2 0.68 2 0 2 C0 1.34 0 0.68 0 0 Z " fill="#20211F" transform="translate(308,630)"/>
<path d="M0 0 C3 1 3 1 3 1 Z " fill="#1D1C1C" transform="translate(695,600)"/>
<path d="M0 0 C2 1 2 1 2 1 Z " fill="#181A1A" transform="translate(811,608)"/>
<path d="M0 0 C2 1 2 1 2 1 Z " fill="#1E201E" transform="translate(682,603)"/>
<path d="M0 0 C2 1 2 1 2 1 Z " fill="#181617" transform="translate(840,600)"/>
<path d="M0 0 C2 1 2 1 2 1 Z " fill="#191B1B" transform="translate(649,583)"/>
<path d="M0 0 C2 1 2 1 2 1 Z " fill="#171816" transform="translate(849,575)"/>
<path d="" fill="#161814" transform="translate(0,0)"/>
<path d="" fill="#181716" transform="translate(0,0)"/>
<path d="" fill="#191A1A" transform="translate(0,0)"/>
<path d="M0 0 C2 1 2 1 2 1 Z " fill="#141515" transform="translate(841,546)"/>
<path d="" fill="#171716" transform="translate(0,0)"/>
<path d="M0 0 C2 1 2 1 2 1 Z " fill="#181716" transform="translate(373,543)"/>
<path d="M0 0 C2 1 2 1 2 1 Z " fill="#161815" transform="translate(212,513)"/>
<path d="" fill="#9E9F9F" transform="translate(0,0)"/>
<path d="" fill="#9F9FA0" transform="translate(0,0)"/>
<path d="" fill="#9F9FA0" transform="translate(0,0)"/>
<path d="" fill="#9B9D9D" transform="translate(0,0)"/>
<path d="" fill="#9D9D9D" transform="translate(0,0)"/>
<path d="" fill="#9C9E9D" transform="translate(0,0)"/>
<path d="" fill="#9D9D9E" transform="translate(0,0)"/>
<path d="" fill="#9D9D9D" transform="translate(0,0)"/>
<path d="" fill="#9F9F9F" transform="translate(0,0)"/>
<path d="" fill="#9F9E9F" transform="translate(0,0)"/>
<path d="" fill="#9E9F9E" transform="translate(0,0)"/>
<path d="" fill="#9C9D9D" transform="translate(0,0)"/>
<path d="" fill="#9F9E9D" transform="translate(0,0)"/>
<path d="" fill="#9E9F9F" transform="translate(0,0)"/>
<path d="" fill="#9E9FA1" transform="translate(0,0)"/>
<path d="" fill="#9D9C9D" transform="translate(0,0)"/>
<path d="" fill="#9D9F9F" transform="translate(0,0)"/>
<path d="" fill="#9D9E9D" transform="translate(0,0)"/>
<path d="" fill="#9F9DA1" transform="translate(0,0)"/>
<path d="" fill="#9B9B9C" transform="translate(0,0)"/>
<path d="" fill="#9E9D9D" transform="translate(0,0)"/>
<path d="" fill="#9D9E9D" transform="translate(0,0)"/>
<path d="" fill="#9D9F9D" transform="translate(0,0)"/>
<path d="" fill="#9D9D9C" transform="translate(0,0)"/>
<path d="" fill="#9B9B9D" transform="translate(0,0)"/>
<path d="" fill="#9C9F9E" transform="translate(0,0)"/>
<path d="" fill="#9DA09E" transform="translate(0,0)"/>
<path d="" fill="#9E9E9E" transform="translate(0,0)"/>
<path d="" fill="#9C9C9C" transform="translate(0,0)"/>
<path d="" fill="#9D9D9D" transform="translate(0,0)"/>
<path d="" fill="#9EA09E" transform="translate(0,0)"/>
<path d="" fill="#9EA09F" transform="translate(0,0)"/>
<path d="" fill="#9D9F9D" transform="translate(0,0)"/>
<path d="" fill="#9EA09F" transform="translate(0,0)"/>
<path d="" fill="#9E9F9F" transform="translate(0,0)"/>
<path d="" fill="#9D9E9E" transform="translate(0,0)"/>
<path d="" fill="#9C9D9C" transform="translate(0,0)"/>
<path d="" fill="#9F9F9F" transform="translate(0,0)"/>
<path d="" fill="#9D9D9D" transform="translate(0,0)"/>
<path d="" fill="#9D9D9D" transform="translate(0,0)"/>
<path d="" fill="#9D9D9D" transform="translate(0,0)"/>
<path d="" fill="#9C9C9E" transform="translate(0,0)"/>
<path d="" fill="#9C9D9D" transform="translate(0,0)"/>
<path d="" fill="#9C9A9B" transform="translate(0,0)"/>
<path d="" fill="#9C9E9D" transform="translate(0,0)"/>
<path d="" fill="#9D9C9E" transform="translate(0,0)"/>
<path d="" fill="#9C9D9D" transform="translate(0,0)"/>
<path d="" fill="#9D9E9D" transform="translate(0,0)"/>
<path d="" fill="#9C9C9C" transform="translate(0,0)"/>
<path d="" fill="#9B9C9C" transform="translate(0,0)"/>
<path d="" fill="#9B9C9C" transform="translate(0,0)"/>
<path d="" fill="#9D9EA0" transform="translate(0,0)"/>
<path d="" fill="#9E9D9C" transform="translate(0,0)"/>
<path d="" fill="#9A9C9B" transform="translate(0,0)"/>
<path d="" fill="#9B9B9A" transform="translate(0,0)"/>
<path d="" fill="#9D9E9E" transform="translate(0,0)"/>
<path d="" fill="#9B9A9B" transform="translate(0,0)"/>
<path d="" fill="#9D9E9C" transform="translate(0,0)"/>
<path d="" fill="#9F9D9E" transform="translate(0,0)"/>
<path d="" fill="#9C9B9C" transform="translate(0,0)"/>
<path d="" fill="#9A9B9A" transform="translate(0,0)"/>
<path d="" fill="#9E9D9E" transform="translate(0,0)"/>
<path d="" fill="#9D9F9E" transform="translate(0,0)"/>
<path d="" fill="#9A9D9D" transform="translate(0,0)"/>
<path d="" fill="#9B9B9C" transform="translate(0,0)"/>
<path d="" fill="#9D9E9D" transform="translate(0,0)"/>
<path d="" fill="#999C9B" transform="translate(0,0)"/>
<path d="" fill="#9B9A9B" transform="translate(0,0)"/>
<path d="" fill="#9B9C9C" transform="translate(0,0)"/>
<path d="" fill="#9B9B9C" transform="translate(0,0)"/>
<path d="" fill="#9C9C9C" transform="translate(0,0)"/>
<path d="" fill="#9A9B9A" transform="translate(0,0)"/>
<path d="" fill="#9D9D9E" transform="translate(0,0)"/>
<path d="" fill="#9A999B" transform="translate(0,0)"/>
<path d="" fill="#999A9C" transform="translate(0,0)"/>
<path d="" fill="#98999A" transform="translate(0,0)"/>
<path d="" fill="#98989A" transform="translate(0,0)"/>
<path d="" fill="#989A9A" transform="translate(0,0)"/>
<path d="" fill="#9A9A9B" transform="translate(0,0)"/>
<path d="" fill="#9E9F9D" transform="translate(0,0)"/>
<path d="" fill="#969898" transform="translate(0,0)"/>
<path d="" fill="#969597" transform="translate(0,0)"/>
<path d="" fill="#989899" transform="translate(0,0)"/>
<path d="" fill="#9E9F9F" transform="translate(0,0)"/>
<path d="" fill="#959696" transform="translate(0,0)"/>
<path d="" fill="#969696" transform="translate(0,0)"/>
<path d="" fill="#979799" transform="translate(0,0)"/>
<path d="" fill="#9D9E9D" transform="translate(0,0)"/>
<path d="" fill="#949594" transform="translate(0,0)"/>
<path d="" fill="#919193" transform="translate(0,0)"/>
<path d="" fill="#8E8F8F" transform="translate(0,0)"/>
<path d="" fill="#989999" transform="translate(0,0)"/>
<path d="" fill="#8B8C8B" transform="translate(0,0)"/>
<path d="" fill="#888A8A" transform="translate(0,0)"/>
<path d="" fill="#87898A" transform="translate(0,0)"/>
<path d="" fill="#8A8C8B" transform="translate(0,0)"/>
<path d="" fill="#858686" transform="translate(0,0)"/>
<path d="" fill="#979797" transform="translate(0,0)"/>
<path d="" fill="#8F9091" transform="translate(0,0)"/>
<path d="" fill="#818282" transform="translate(0,0)"/>
<path d="" fill="#848788" transform="translate(0,0)"/>
<path d="" fill="#959595" transform="translate(0,0)"/>
<path d="" fill="#9B9C9D" transform="translate(0,0)"/>
<path d="" fill="#949395" transform="translate(0,0)"/>
<path d="" fill="#818382" transform="translate(0,0)"/>
<path d="" fill="#929392" transform="translate(0,0)"/>
<path d="" fill="#878987" transform="translate(0,0)"/>
<path d="" fill="#797B7B" transform="translate(0,0)"/>
<path d="" fill="#787879" transform="translate(0,0)"/>
<path d="" fill="#959796" transform="translate(0,0)"/>
<path d="" fill="#9A999A" transform="translate(0,0)"/>
<path d="" fill="#727373" transform="translate(0,0)"/>
<path d="" fill="#959695" transform="translate(0,0)"/>
<path d="" fill="#818382" transform="translate(0,0)"/>
<path d="" fill="#565558" transform="translate(0,0)"/>
<path d="" fill="#676868" transform="translate(0,0)"/>
<path d="" fill="#555757" transform="translate(0,0)"/>
<path d="" fill="#363835" transform="translate(0,0)"/>
<path d="" fill="#323333" transform="translate(0,0)"/>
<path d="" fill="#1D2020" transform="translate(0,0)"/>
<path d="" fill="#232421" transform="translate(0,0)"/>
<path d="" fill="#242422" transform="translate(0,0)"/>
<path d="" fill="#222022" transform="translate(0,0)"/>
<path d="" fill="#212120" transform="translate(0,0)"/>
<path d="" fill="#1E1F1F" transform="translate(0,0)"/>
<path d="" fill="#222421" transform="translate(0,0)"/>
<path d="" fill="#29292A" transform="translate(0,0)"/>
<path d="" fill="#22201F" transform="translate(0,0)"/>
<path d="" fill="#1F201C" transform="translate(0,0)"/>
<path d="" fill="#242424" transform="translate(0,0)"/>
<path d="" fill="#1D1B1D" transform="translate(0,0)"/>
<path d="" fill="#1B1B1B" transform="translate(0,0)"/>
<path d="" fill="#202120" transform="translate(0,0)"/>
<path d="" fill="#1A1E1D" transform="translate(0,0)"/>
<path d="" fill="#8D8D8D" transform="translate(0,0)"/>
<path d="" fill="#1D1C1B" transform="translate(0,0)"/>
<path d="" fill="#202121" transform="translate(0,0)"/>
<path d="" fill="#242624" transform="translate(0,0)"/>
<path d="" fill="#1B1D1B" transform="translate(0,0)"/>
<path d="" fill="#1B1E1C" transform="translate(0,0)"/>
<path d="" fill="#1B1C1D" transform="translate(0,0)"/>
<path d="" fill="#1C1C1B" transform="translate(0,0)"/>
<path d="" fill="#222221" transform="translate(0,0)"/>
<path d="" fill="#18191A" transform="translate(0,0)"/>
<path d="" fill="#1A1B1C" transform="translate(0,0)"/>
<path d="" fill="#1B1B1B" transform="translate(0,0)"/>
<path d="" fill="#1A1918" transform="translate(0,0)"/>
<path d="" fill="#1C1D1E" transform="translate(0,0)"/>
<path d="" fill="#1B1D1C" transform="translate(0,0)"/>
<path d="" fill="#1E1F1C" transform="translate(0,0)"/>
<path d="" fill="#1B1D1B" transform="translate(0,0)"/>
<path d="" fill="#161819" transform="translate(0,0)"/>
<path d="" fill="#181718" transform="translate(0,0)"/>
<path d="" fill="#151516" transform="translate(0,0)"/>
<path d="" fill="#1A191A" transform="translate(0,0)"/>
<path d="" fill="#161717" transform="translate(0,0)"/>
<path d="" fill="#1B1B1A" transform="translate(0,0)"/>
<path d="" fill="#1A1A16" transform="translate(0,0)"/>
<path d="" fill="#1A1C1A" transform="translate(0,0)"/>
<path d="" fill="#191918" transform="translate(0,0)"/>
<path d="" fill="#151515" transform="translate(0,0)"/>
<path d="" fill="#151513" transform="translate(0,0)"/>
<path d="" fill="#141511" transform="translate(0,0)"/>
<path d="" fill="#171716" transform="translate(0,0)"/>
<path d="" fill="#141413" transform="translate(0,0)"/>
<path d="" fill="#1C1B19" transform="translate(0,0)"/>
<path d="" fill="#1B1916" transform="translate(0,0)"/>
<path d="" fill="#121414" transform="translate(0,0)"/>
<path d="" fill="#191A19" transform="translate(0,0)"/>
<path d="" fill="#1B1D19" transform="translate(0,0)"/>
<path d="" fill="#181919" transform="translate(0,0)"/>
<path d="" fill="#181915" transform="translate(0,0)"/>
<path d="" fill="#191918" transform="translate(0,0)"/>
<path d="" fill="#151514" transform="translate(0,0)"/>
<path d="" fill="#171616" transform="translate(0,0)"/>
<path d="" fill="#171817" transform="translate(0,0)"/>
<path d="" fill="#1A1918" transform="translate(0,0)"/>
<path d="" fill="#191817" transform="translate(0,0)"/>
<path d="" fill="#161415" transform="translate(0,0)"/>
<path d="" fill="#171717" transform="translate(0,0)"/>
<path d="" fill="#181617" transform="translate(0,0)"/>
<path d="" fill="#17181A" transform="translate(0,0)"/>
<path d="" fill="#141216" transform="translate(0,0)"/>
<path d="" fill="#181917" transform="translate(0,0)"/>
<path d="" fill="#191915" transform="translate(0,0)"/>
<path d="" fill="#161715" transform="translate(0,0)"/>
<path d="" fill="#151516" transform="translate(0,0)"/>
<path d="" fill="#141514" transform="translate(0,0)"/>
<path d="" fill="#141516" transform="translate(0,0)"/>
<path d="" fill="#151515" transform="translate(0,0)"/>
<path d="" fill="#161615" transform="translate(0,0)"/>
<path d="" fill="#181717" transform="translate(0,0)"/>
<path d="" fill="#181815" transform="translate(0,0)"/>
<path d="" fill="#141413" transform="translate(0,0)"/>
<path d="" fill="#171514" transform="translate(0,0)"/>
<path d="" fill="#181918" transform="translate(0,0)"/>
<path d="" fill="#161614" transform="translate(0,0)"/>
<path d="" fill="#191917" transform="translate(0,0)"/>
<path d="" fill="#161615" transform="translate(0,0)"/>
<path d="" fill="#171516" transform="translate(0,0)"/>
<path d="" fill="#131113" transform="translate(0,0)"/>
<path d="" fill="#1A1817" transform="translate(0,0)"/>
<path d="" fill="#171616" transform="translate(0,0)"/>
<path d="" fill="#1C1C1E" transform="translate(0,0)"/>
<path d="" fill="#787778" transform="translate(0,0)"/>
<path d="" fill="#151515" transform="translate(0,0)"/>
<path d="" fill="#171715" transform="translate(0,0)"/>
<path d="" fill="#161715" transform="translate(0,0)"/>
<path d="" fill="#171517" transform="translate(0,0)"/>
<path d="" fill="#171715" transform="translate(0,0)"/>
<path d="" fill="#7D7F7E" transform="translate(0,0)"/>
<path d="" fill="#171816" transform="translate(0,0)"/>
<path d="" fill="#151416" transform="translate(0,0)"/>
<path d="" fill="#141515" transform="translate(0,0)"/>
<path d="" fill="#1A1819" transform="translate(0,0)"/>
<path d="" fill="#181616" transform="translate(0,0)"/>
<path d="" fill="#1A1918" transform="translate(0,0)"/>
<path d="" fill="#191818" transform="translate(0,0)"/>
<path d="" fill="#191614" transform="translate(0,0)"/>
<path d="" fill="#1B1918" transform="translate(0,0)"/>
<path d="" fill="#131615" transform="translate(0,0)"/>
<path d="" fill="#141715" transform="translate(0,0)"/>
<path d="" fill="#181817" transform="translate(0,0)"/>
<path d="" fill="#171412" transform="translate(0,0)"/>
<path d="" fill="#878787" transform="translate(0,0)"/>
<path d="" fill="#181A18" transform="translate(0,0)"/>
<path d="" fill="#151715" transform="translate(0,0)"/>
<path d="" fill="#161717" transform="translate(0,0)"/>
<path d="" fill="#161716" transform="translate(0,0)"/>
<path d="" fill="#161817" transform="translate(0,0)"/>
<path d="" fill="#131416" transform="translate(0,0)"/>
<path d="" fill="#191714" transform="translate(0,0)"/>
<path d="" fill="#19191B" transform="translate(0,0)"/>
<path d="" fill="#141918" transform="translate(0,0)"/>
<path d="" fill="#151719" transform="translate(0,0)"/>
<path d="" fill="#151416" transform="translate(0,0)"/>
<path d="" fill="#141615" transform="translate(0,0)"/>
<path d="" fill="#161415" transform="translate(0,0)"/>
<path d="" fill="#141414" transform="translate(0,0)"/>
<path d="" fill="#3E3D3C" transform="translate(0,0)"/>
<path d="" fill="#30302C" transform="translate(0,0)"/>
<path d="" fill="#2E2F2F" transform="translate(0,0)"/>
<path d="" fill="#2E302C" transform="translate(0,0)"/>
<path d="" fill="#2E2F2C" transform="translate(0,0)"/>
<path d="" fill="#2E2F2C" transform="translate(0,0)"/>
<path d="" fill="#2A2B28" transform="translate(0,0)"/>
<path d="" fill="#2B2B2B" transform="translate(0,0)"/>
<path d="" fill="#2E2D2C" transform="translate(0,0)"/>
<path d="" fill="#2D2F2B" transform="translate(0,0)"/>
<path d="" fill="#2C2D2B" transform="translate(0,0)"/>
<path d="" fill="#2D2D2A" transform="translate(0,0)"/>
<path d="" fill="#2D2D29" transform="translate(0,0)"/>
<path d="" fill="#2C2C29" transform="translate(0,0)"/>
<path d="" fill="#2A2D2A" transform="translate(0,0)"/>
<path d="" fill="#2D2B29" transform="translate(0,0)"/>
<path d="" fill="#2D2E2C" transform="translate(0,0)"/>
<path d="" fill="#2C2D2A" transform="translate(0,0)"/>
<path d="" fill="#2C2D29" transform="translate(0,0)"/>
<path d="" fill="#2C2D2B" transform="translate(0,0)"/>
<path d="" fill="#2C2B2A" transform="translate(0,0)"/>
<path d="" fill="#2C2B2C" transform="translate(0,0)"/>
<path d="" fill="#2D2E2C" transform="translate(0,0)"/>
<path d="" fill="#282927" transform="translate(0,0)"/>
<path d="" fill="#191A1A" transform="translate(0,0)"/>
<path d="" fill="#191816" transform="translate(0,0)"/>
<path d="" fill="#141615" transform="translate(0,0)"/>
<path d="" fill="#1C1D1C" transform="translate(0,0)"/>
<path d="" fill="#1F1F1D" transform="translate(0,0)"/>
<path d="" fill="#292928" transform="translate(0,0)"/>
<path d="" fill="#242524" transform="translate(0,0)"/>
<path d="" fill="#888887" transform="translate(0,0)"/>
<path d="" fill="#3A3937" transform="translate(0,0)"/>
<path d="" fill="#393A38" transform="translate(0,0)"/>
<path d="" fill="#888A89" transform="translate(0,0)"/>
<path d="" fill="#484A49" transform="translate(0,0)"/>
<path d="" fill="#838483" transform="translate(0,0)"/>
<path d="" fill="#585958" transform="translate(0,0)"/>
<path d="" fill="#8B898A" transform="translate(0,0)"/>
<path d="" fill="#888789" transform="translate(0,0)"/>
<path d="" fill="#5B5D5B" transform="translate(0,0)"/>
<path d="" fill="#222322" transform="translate(0,0)"/>
<path d="" fill="#616161" transform="translate(0,0)"/>
<path d="" fill="#616163" transform="translate(0,0)"/>
<path d="" fill="#888A8A" transform="translate(0,0)"/>
<path d="" fill="#6F7271" transform="translate(0,0)"/>
<path d="" fill="#666666" transform="translate(0,0)"/>
<path d="" fill="#252023" transform="translate(0,0)"/>
<path d="" fill="#7A7B7B" transform="translate(0,0)"/>
<path d="" fill="#686A6A" transform="translate(0,0)"/>
<path d="" fill="#878689" transform="translate(0,0)"/>
<path d="" fill="#2F302F" transform="translate(0,0)"/>
<path d="" fill="#212223" transform="translate(0,0)"/>
<path d="" fill="#727172" transform="translate(0,0)"/>
<path d="" fill="#737272" transform="translate(0,0)"/>
<path d="" fill="#737473" transform="translate(0,0)"/>
<path d="" fill="#8E8E8E" transform="translate(0,0)"/>
<path d="" fill="#929394" transform="translate(0,0)"/>
<path d="" fill="#4C4C4B" transform="translate(0,0)"/>
<path d="" fill="#858687" transform="translate(0,0)"/>
<path d="" fill="#7D7F7D" transform="translate(0,0)"/>
<path d="" fill="#585959" transform="translate(0,0)"/>
<path d="" fill="#7D7F7D" transform="translate(0,0)"/>
<path d="" fill="#676567" transform="translate(0,0)"/>
<path d="" fill="#8E9190" transform="translate(0,0)"/>
<path d="" fill="#696968" transform="translate(0,0)"/>
<path d="" fill="#6B6C6B" transform="translate(0,0)"/>
<path d="" fill="#818081" transform="translate(0,0)"/>
<path d="" fill="#898A89" transform="translate(0,0)"/>
<path d="" fill="#888888" transform="translate(0,0)"/>
<path d="" fill="#868789" transform="translate(0,0)"/>
<path d="" fill="#8C8B8D" transform="translate(0,0)"/>
<path d="" fill="#898A8A" transform="translate(0,0)"/>
<path d="" fill="#8A8C8C" transform="translate(0,0)"/>
<path d="" fill="#949596" transform="translate(0,0)"/>
<path d="" fill="#8B8A8D" transform="translate(0,0)"/>
<path d="" fill="#8D8F91" transform="translate(0,0)"/>
<path d="" fill="#919292" transform="translate(0,0)"/>
<path d="" fill="#929191" transform="translate(0,0)"/>
<path d="" fill="#929291" transform="translate(0,0)"/>
<path d="" fill="#929392" transform="translate(0,0)"/>
<path d="" fill="#939594" transform="translate(0,0)"/>
<path d="" fill="#9B999A" transform="translate(0,0)"/>
<path d="" fill="#949695" transform="translate(0,0)"/>
<path d="" fill="#959594" transform="translate(0,0)"/>
<path d="" fill="#949495" transform="translate(0,0)"/>
<path d="" fill="#959698" transform="translate(0,0)"/>
<path d="" fill="#9F9EA2" transform="translate(0,0)"/>
<path d="" fill="#969897" transform="translate(0,0)"/>
<path d="" fill="#969797" transform="translate(0,0)"/>
<path d="" fill="#999898" transform="translate(0,0)"/>
<path d="" fill="#989A9A" transform="translate(0,0)"/>
<path d="" fill="#9C9D9B" transform="translate(0,0)"/>
<path d="" fill="#9E9F9F" transform="translate(0,0)"/>
<path d="" fill="#999A9A" transform="translate(0,0)"/>
<path d="" fill="#989999" transform="translate(0,0)"/>
<path d="" fill="#9B9C9C" transform="translate(0,0)"/>
<path d="" fill="#9C999D" transform="translate(0,0)"/>
<path d="" fill="#9B9C9B" transform="translate(0,0)"/>
<path d="" fill="#9F9F9F" transform="translate(0,0)"/>
<path d="" fill="#9C9C9E" transform="translate(0,0)"/>
<path d="" fill="#9F9E9C" transform="translate(0,0)"/>
<path d="" fill="#A0A1A1" transform="translate(0,0)"/>
<path d="" fill="#A0A0A1" transform="translate(0,0)"/>
<path d="" fill="#A1A0A0" transform="translate(0,0)"/>
<path d="" fill="#A1A0A1" transform="translate(0,0)"/>
<path d="" fill="#A1A2A2" transform="translate(0,0)"/>
<path d="" fill="#A1A3A3" transform="translate(0,0)"/>
<path d="" fill="#A1A3A3" transform="translate(0,0)"/>
<path d="" fill="#A3A3A3" transform="translate(0,0)"/>
<path d="" fill="#A1A3A2" transform="translate(0,0)"/>
<path d="" fill="#A2A5A4" transform="translate(0,0)"/>
<path d="" fill="#A3A4A4" transform="translate(0,0)"/>
<path d="" fill="#A5A2A5" transform="translate(0,0)"/>
<path d="" fill="#A5A5A4" transform="translate(0,0)"/>
<path d="" fill="#A5A6A6" transform="translate(0,0)"/>
<path d="" fill="#A4A5A5" transform="translate(0,0)"/>
<path d="" fill="#A6A3A5" transform="translate(0,0)"/>
<path d="" fill="#A3A6A4" transform="translate(0,0)"/>
<path d="" fill="#A5A5A8" transform="translate(0,0)"/>
<path d="" fill="#A5A4A6" transform="translate(0,0)"/>
<path d="" fill="#A6A5A6" transform="translate(0,0)"/>
<path d="" fill="#A9AAA9" transform="translate(0,0)"/>
<path d="" fill="#A6A7A6" transform="translate(0,0)"/>
<path d="" fill="#A7A9A7" transform="translate(0,0)"/>
<path d="" fill="#A6A9A7" transform="translate(0,0)"/>
<path d="" fill="#A7A6A6" transform="translate(0,0)"/>
<path d="" fill="#A8A6A8" transform="translate(0,0)"/>
<path d="" fill="#A7A7A8" transform="translate(0,0)"/>
<path d="" fill="#A7A7A8" transform="translate(0,0)"/>
<path d="" fill="#A6A8A9" transform="translate(0,0)"/>
<path d="" fill="#A8A8A8" transform="translate(0,0)"/>
</svg>
